<svg xmlns="http://www.w3.org/2000/svg" xmlns:xlink="http://www.w3.org/1999/xlink" width="500" zoomAndPan="magnify" viewBox="0 0 375 374.999991" height="500" preserveAspectRatio="xMidYMid meet" version="1.0"><defs><clipPath id="id1"><path d="M 44.003906 89 L 331.011719 89 L 331.011719 328 L 44.003906 328 Z M 44.003906 89 " clip-rule="nonzero"/></clipPath><clipPath id="id2"><path d="M 74 320 L 101 320 L 101 354.601562 L 74 354.601562 Z M 74 320 " clip-rule="nonzero"/></clipPath><clipPath id="id3"><path d="M 274 320 L 301 320 L 301 354.601562 L 274 354.601562 Z M 274 320 " clip-rule="nonzero"/></clipPath><clipPath id="id4"><path d="M 138.222656 189 L 174 189 L 174 226 L 138.222656 226 Z M 138.222656 189 " clip-rule="nonzero"/></clipPath><clipPath id="id5"><path d="M 154 201 L 172 201 L 172 248.757812 L 154 248.757812 Z M 154 201 " clip-rule="nonzero"/></clipPath><clipPath id="id6"><path d="M 145 219 L 157 219 L 157 248.757812 L 145 248.757812 Z M 145 219 " clip-rule="nonzero"/></clipPath><clipPath id="id7"><path d="M 200 189 L 236.472656 189 L 236.472656 226 L 200 226 Z M 200 189 " clip-rule="nonzero"/></clipPath><clipPath id="id8"><path d="M 203 201 L 220 201 L 220 248.757812 L 203 248.757812 Z M 203 201 " clip-rule="nonzero"/></clipPath><clipPath id="id9"><path d="M 217 219 L 229 219 L 229 248.757812 L 217 248.757812 Z M 217 219 " clip-rule="nonzero"/></clipPath><clipPath id="id10"><path d="M 186 216 L 198 216 L 198 248.757812 L 186 248.757812 Z M 186 216 " clip-rule="nonzero"/></clipPath><clipPath id="id11"><path d="M 177 216 L 189 216 L 189 248.757812 L 177 248.757812 Z M 177 216 " clip-rule="nonzero"/></clipPath></defs><g clip-path="url(#id1)"><path fill="#d1dbda" d="M 64.132812 100.40625 C 58.816406 100.40625 54.488281 104.734375 54.488281 110.050781 L 54.488281 307.242188 C 54.488281 312.558594 58.816406 316.882812 64.132812 316.882812 L 310.867188 316.882812 C 316.1875 316.882812 320.511719 312.558594 320.511719 307.242188 L 320.511719 110.050781 C 320.511719 104.734375 316.1875 100.40625 310.867188 100.40625 Z M 310.867188 327.390625 L 64.132812 327.390625 C 53.019531 327.390625 43.980469 318.351562 43.980469 307.242188 L 43.980469 110.050781 C 43.980469 98.9375 53.019531 89.898438 64.132812 89.898438 L 310.867188 89.898438 C 321.980469 89.898438 331.023438 98.9375 331.023438 110.050781 L 331.023438 307.242188 C 331.023438 318.351562 321.980469 327.390625 310.867188 327.390625 " fill-opacity="1" fill-rule="nonzero"/></g><path fill="#d1dbda" d="M 98.386719 131.832031 C 93.070312 131.832031 88.746094 136.160156 88.746094 141.476562 L 88.746094 275.816406 C 88.746094 281.132812 93.070312 285.457031 98.386719 285.457031 L 276.613281 285.457031 C 281.929688 285.457031 286.253906 281.132812 286.253906 275.816406 L 286.253906 141.476562 C 286.253906 136.160156 281.929688 131.832031 276.613281 131.832031 Z M 276.613281 295.964844 L 98.386719 295.964844 C 87.277344 295.964844 78.234375 286.925781 78.234375 275.816406 L 78.234375 141.476562 C 78.234375 130.363281 87.277344 121.324219 98.386719 121.324219 L 276.613281 121.324219 C 287.726562 121.324219 296.765625 130.363281 296.765625 141.476562 L 296.765625 275.816406 C 296.765625 286.925781 287.726562 295.964844 276.613281 295.964844 " fill-opacity="1" fill-rule="nonzero"/><g clip-path="url(#id2)"><path fill="#d1dbda" d="M 80.167969 354.285156 C 79.210938 354.285156 78.242188 354.023438 77.371094 353.476562 C 74.914062 351.929688 74.179688 348.683594 75.726562 346.230469 L 90.425781 322.90625 C 91.972656 320.449219 95.21875 319.710938 97.671875 321.261719 C 100.128906 322.804688 100.867188 326.050781 99.316406 328.507812 L 84.621094 351.828125 C 83.621094 353.417969 81.914062 354.285156 80.167969 354.285156 " fill-opacity="1" fill-rule="nonzero"/></g><g clip-path="url(#id3)"><path fill="#d1dbda" d="M 294.832031 354.285156 C 293.085938 354.285156 291.382812 353.417969 290.382812 351.828125 L 275.683594 328.507812 C 274.136719 326.050781 274.871094 322.804688 277.324219 321.261719 C 279.785156 319.710938 283.027344 320.449219 284.574219 322.90625 L 299.273438 346.230469 C 300.820312 348.683594 300.082031 351.929688 297.628906 353.476562 C 296.761719 354.023438 295.789062 354.285156 294.832031 354.285156 " fill-opacity="1" fill-rule="nonzero"/></g><path fill="#d1dbda" d="M 236.058594 97.804688 C 234.710938 97.804688 233.371094 97.289062 232.34375 96.265625 C 230.289062 94.214844 230.289062 90.886719 232.34375 88.832031 L 298.492188 22.6875 C 300.546875 20.636719 303.875 20.640625 305.925781 22.6875 C 307.976562 24.742188 307.976562 28.066406 305.925781 30.121094 L 239.773438 96.265625 C 238.746094 97.289062 237.402344 97.804688 236.058594 97.804688 " fill-opacity="1" fill-rule="nonzero"/><path fill="#d1dbda" d="M 236.171875 97.804688 C 234.824219 97.804688 233.480469 97.289062 232.453125 96.265625 L 166.300781 30.121094 C 164.25 28.066406 164.25 24.742188 166.300781 22.6875 C 168.355469 20.636719 171.683594 20.636719 173.734375 22.6875 L 239.886719 88.832031 C 241.9375 90.886719 241.9375 94.214844 239.886719 96.265625 C 238.859375 97.289062 237.511719 97.804688 236.171875 97.804688 " fill-opacity="1" fill-rule="nonzero"/><g clip-path="url(#id4)"><path fill="#d1dbda" d="M 143.058594 225.089844 C 142.742188 225.089844 142.425781 225.058594 142.117188 224.996094 C 141.804688 224.933594 141.5 224.84375 141.207031 224.722656 C 140.914062 224.597656 140.636719 224.449219 140.371094 224.273438 C 140.109375 224.09375 139.863281 223.894531 139.640625 223.667969 C 139.414062 223.441406 139.214844 223.199219 139.039062 222.933594 C 138.863281 222.667969 138.714844 222.386719 138.59375 222.09375 C 138.472656 221.796875 138.378906 221.496094 138.316406 221.183594 C 138.253906 220.867188 138.222656 220.554688 138.222656 220.234375 L 138.222656 199.367188 C 138.226562 198.742188 138.285156 198.117188 138.410156 197.503906 C 138.53125 196.886719 138.710938 196.289062 138.953125 195.710938 C 139.191406 195.128906 139.484375 194.578125 139.832031 194.058594 C 140.179688 193.535156 140.574219 193.050781 141.015625 192.609375 C 141.457031 192.164062 141.9375 191.769531 142.457031 191.417969 C 142.976562 191.070312 143.527344 190.777344 144.101562 190.535156 C 144.679688 190.292969 145.273438 190.113281 145.886719 189.988281 C 146.5 189.867188 147.121094 189.804688 147.746094 189.804688 L 172.976562 189.804688 C 173.246094 189.804688 173.476562 189.902344 173.667969 190.09375 C 173.863281 190.285156 173.957031 190.519531 173.957031 190.792969 C 173.957031 191.0625 173.863281 191.296875 173.667969 191.488281 C 173.476562 191.683594 173.246094 191.777344 172.976562 191.777344 L 147.746094 191.777344 C 147.25 191.777344 146.757812 191.828125 146.273438 191.925781 C 145.785156 192.023438 145.3125 192.167969 144.855469 192.359375 C 144.398438 192.550781 143.960938 192.785156 143.550781 193.058594 C 143.136719 193.335938 142.757812 193.652344 142.40625 194.003906 C 142.054688 194.355469 141.742188 194.738281 141.464844 195.152344 C 141.191406 195.566406 140.957031 196.003906 140.765625 196.464844 C 140.578125 196.925781 140.433594 197.398438 140.335938 197.886719 C 140.238281 198.378906 140.191406 198.871094 140.191406 199.367188 L 140.191406 220.234375 C 140.183594 220.820312 140.34375 221.359375 140.667969 221.847656 C 140.988281 222.335938 141.421875 222.695312 141.960938 222.917969 C 142.5 223.140625 143.054688 223.195312 143.628906 223.078125 C 144.199219 222.960938 144.691406 222.695312 145.101562 222.277344 C 145.492188 221.898438 145.75 221.441406 145.867188 220.90625 C 145.925781 220.6875 145.957031 220.460938 145.957031 220.234375 L 145.957031 202.910156 C 145.957031 202.640625 146.050781 202.40625 146.246094 202.214844 C 146.4375 202.019531 146.667969 201.925781 146.9375 201.925781 C 147.210938 201.925781 147.441406 202.019531 147.632812 202.214844 C 147.824219 202.40625 147.921875 202.640625 147.921875 202.910156 L 147.921875 220.234375 C 147.921875 220.617188 147.875 220.996094 147.785156 221.371094 C 147.566406 222.253906 147.128906 223.007812 146.476562 223.640625 C 146.027344 224.101562 145.507812 224.460938 144.914062 224.710938 C 144.320312 224.960938 143.703125 225.089844 143.058594 225.089844 Z M 143.058594 225.089844 " fill-opacity="1" fill-rule="nonzero"/></g><g clip-path="url(#id5)"><path fill="#d1dbda" d="M 160.359375 248.671875 C 160 248.671875 159.640625 248.636719 159.285156 248.566406 C 158.933594 248.492188 158.589844 248.390625 158.253906 248.25 C 157.921875 248.109375 157.605469 247.941406 157.304688 247.738281 C 157.003906 247.539062 156.726562 247.308594 156.46875 247.050781 C 156.214844 246.796875 155.984375 246.515625 155.785156 246.214844 C 155.585938 245.914062 155.414062 245.59375 155.277344 245.257812 C 155.136719 244.921875 155.035156 244.578125 154.964844 244.222656 C 154.894531 243.867188 154.859375 243.507812 154.859375 243.144531 L 154.859375 224.105469 C 154.859375 223.832031 154.953125 223.597656 155.144531 223.40625 C 155.335938 223.214844 155.570312 223.117188 155.839844 223.117188 C 156.113281 223.117188 156.34375 223.214844 156.535156 223.40625 C 156.726562 223.597656 156.824219 223.832031 156.824219 224.105469 L 156.824219 243.144531 C 156.824219 243.613281 156.914062 244.066406 157.09375 244.503906 C 157.273438 244.9375 157.527344 245.324219 157.859375 245.65625 C 158.191406 245.988281 158.574219 246.246094 159.007812 246.425781 C 159.441406 246.605469 159.890625 246.695312 160.359375 246.695312 C 160.828125 246.695312 161.28125 246.605469 161.714844 246.425781 C 162.148438 246.246094 162.527344 245.988281 162.859375 245.65625 C 163.191406 245.324219 163.449219 244.9375 163.628906 244.503906 C 163.808594 244.066406 163.898438 243.613281 163.898438 243.144531 L 163.898438 202.910156 C 163.898438 202.640625 163.992188 202.40625 164.183594 202.214844 C 164.375 202.019531 164.609375 201.925781 164.878906 201.925781 L 170.648438 201.925781 C 170.917969 201.925781 171.148438 202.019531 171.339844 202.214844 C 171.53125 202.40625 171.628906 202.640625 171.628906 202.910156 C 171.628906 203.183594 171.53125 203.417969 171.339844 203.609375 C 171.148438 203.800781 170.917969 203.898438 170.648438 203.898438 L 165.863281 203.898438 L 165.863281 243.144531 C 165.863281 243.507812 165.828125 243.867188 165.757812 244.222656 C 165.6875 244.578125 165.582031 244.921875 165.441406 245.257812 C 165.304688 245.59375 165.136719 245.914062 164.933594 246.214844 C 164.734375 246.515625 164.503906 246.796875 164.25 247.050781 C 163.996094 247.308594 163.71875 247.539062 163.417969 247.738281 C 163.117188 247.941406 162.800781 248.109375 162.464844 248.25 C 162.132812 248.390625 161.789062 248.492188 161.433594 248.566406 C 161.078125 248.636719 160.722656 248.671875 160.359375 248.671875 Z M 160.359375 248.671875 " fill-opacity="1" fill-rule="nonzero"/></g><g clip-path="url(#id6)"><path fill="#d1dbda" d="M 151.320312 248.671875 C 150.960938 248.671875 150.601562 248.632812 150.25 248.5625 C 149.894531 248.492188 149.550781 248.386719 149.21875 248.246094 C 148.886719 248.109375 148.570312 247.9375 148.269531 247.734375 C 147.96875 247.535156 147.691406 247.304688 147.4375 247.046875 C 147.183594 246.792969 146.953125 246.511719 146.753906 246.210938 C 146.554688 245.910156 146.382812 245.589844 146.246094 245.257812 C 146.109375 244.921875 146.003906 244.578125 145.933594 244.21875 C 145.863281 243.863281 145.828125 243.507812 145.828125 243.144531 L 145.828125 220.234375 C 145.828125 219.960938 145.925781 219.730469 146.117188 219.535156 C 146.308594 219.34375 146.539062 219.246094 146.8125 219.246094 C 147.082031 219.246094 147.3125 219.34375 147.507812 219.535156 C 147.699219 219.730469 147.792969 219.960938 147.792969 220.234375 L 147.792969 243.144531 C 147.78125 243.382812 147.792969 243.625 147.828125 243.863281 C 147.863281 244.101562 147.925781 244.332031 148.007812 244.558594 C 148.089844 244.785156 148.195312 245 148.320312 245.207031 C 148.449219 245.410156 148.59375 245.601562 148.761719 245.777344 C 148.925781 245.953125 149.105469 246.109375 149.304688 246.246094 C 149.5 246.382812 149.707031 246.5 149.929688 246.59375 C 150.148438 246.691406 150.378906 246.761719 150.613281 246.8125 C 150.847656 246.859375 151.085938 246.882812 151.324219 246.882812 C 151.566406 246.882812 151.804688 246.859375 152.039062 246.8125 C 152.273438 246.761719 152.5 246.691406 152.722656 246.59375 C 152.941406 246.5 153.152344 246.382812 153.347656 246.246094 C 153.546875 246.109375 153.726562 245.953125 153.890625 245.777344 C 154.058594 245.601562 154.203125 245.410156 154.328125 245.207031 C 154.457031 245 154.5625 244.785156 154.644531 244.558594 C 154.726562 244.332031 154.789062 244.101562 154.824219 243.863281 C 154.859375 243.625 154.871094 243.382812 154.859375 243.144531 L 154.859375 224.105469 C 154.859375 223.832031 154.953125 223.597656 155.144531 223.40625 C 155.335938 223.214844 155.570312 223.117188 155.839844 223.117188 C 156.113281 223.117188 156.34375 223.214844 156.535156 223.40625 C 156.726562 223.597656 156.824219 223.832031 156.824219 224.105469 L 156.824219 243.144531 C 156.824219 243.507812 156.789062 243.867188 156.71875 244.222656 C 156.648438 244.578125 156.542969 244.921875 156.402344 245.257812 C 156.265625 245.59375 156.097656 245.914062 155.894531 246.214844 C 155.695312 246.515625 155.46875 246.796875 155.210938 247.050781 C 154.957031 247.308594 154.679688 247.539062 154.378906 247.738281 C 154.078125 247.941406 153.761719 248.109375 153.425781 248.25 C 153.09375 248.390625 152.75 248.492188 152.394531 248.566406 C 152.039062 248.636719 151.683594 248.671875 151.320312 248.671875 Z M 151.320312 248.671875 " fill-opacity="1" fill-rule="nonzero"/></g><path fill="#d1dbda" d="M 155.910156 186.578125 C 155.230469 186.578125 154.554688 186.511719 153.886719 186.378906 C 153.21875 186.25 152.570312 186.050781 151.941406 185.792969 C 151.3125 185.53125 150.714844 185.210938 150.148438 184.832031 C 149.582031 184.453125 149.058594 184.023438 148.578125 183.539062 C 148.097656 183.058594 147.664062 182.53125 147.285156 181.964844 C 146.90625 181.394531 146.589844 180.796875 146.328125 180.164062 C 146.066406 179.535156 145.867188 178.882812 145.734375 178.214844 C 145.601562 177.542969 145.535156 176.867188 145.535156 176.183594 C 145.535156 175.5 145.597656 174.824219 145.730469 174.152344 C 145.863281 173.480469 146.058594 172.832031 146.320312 172.199219 C 146.578125 171.566406 146.898438 170.96875 147.277344 170.398438 C 147.652344 169.828125 148.082031 169.304688 148.5625 168.820312 C 149.042969 168.335938 149.566406 167.90625 150.132812 167.523438 C 150.699219 167.144531 151.296875 166.824219 151.925781 166.5625 C 152.554688 166.300781 153.199219 166.101562 153.867188 165.96875 C 154.535156 165.835938 155.210938 165.769531 155.890625 165.769531 C 156.570312 165.769531 157.242188 165.835938 157.910156 165.96875 C 158.578125 166.101562 159.226562 166.300781 159.855469 166.5625 C 160.484375 166.824219 161.082031 167.144531 161.644531 167.523438 C 162.210938 167.90625 162.734375 168.335938 163.214844 168.820312 C 163.695312 169.304688 164.125 169.828125 164.503906 170.398438 C 164.878906 170.96875 165.199219 171.566406 165.460938 172.199219 C 165.71875 172.832031 165.914062 173.480469 166.046875 174.152344 C 166.179688 174.824219 166.246094 175.5 166.246094 176.183594 C 166.246094 176.863281 166.175781 177.539062 166.042969 178.207031 C 165.910156 178.878906 165.714844 179.527344 165.457031 180.15625 C 165.195312 180.785156 164.878906 181.386719 164.5 181.953125 C 164.125 182.519531 163.695312 183.042969 163.214844 183.527344 C 162.734375 184.007812 162.214844 184.4375 161.648438 184.820312 C 161.085938 185.199219 160.492188 185.519531 159.863281 185.78125 C 159.238281 186.042969 158.589844 186.238281 157.925781 186.375 C 157.261719 186.507812 156.589844 186.574219 155.910156 186.578125 Z M 155.910156 167.753906 C 155.359375 167.753906 154.8125 167.804688 154.273438 167.914062 C 153.730469 168.019531 153.207031 168.179688 152.695312 168.390625 C 152.1875 168.601562 151.703125 168.863281 151.246094 169.167969 C 150.785156 169.476562 150.363281 169.824219 149.972656 170.21875 C 149.582031 170.609375 149.234375 171.035156 148.925781 171.492188 C 148.621094 171.953125 148.363281 172.4375 148.152344 172.949219 C 147.9375 173.460938 147.78125 173.988281 147.671875 174.53125 C 147.5625 175.074219 147.507812 175.621094 147.507812 176.175781 C 147.507812 176.730469 147.5625 177.277344 147.667969 177.820312 C 147.777344 178.363281 147.933594 178.890625 148.144531 179.402344 C 148.355469 179.914062 148.613281 180.402344 148.921875 180.863281 C 149.226562 181.320312 149.574219 181.75 149.964844 182.140625 C 150.351562 182.53125 150.777344 182.882812 151.234375 183.1875 C 151.691406 183.496094 152.175781 183.757812 152.683594 183.96875 C 153.195312 184.179688 153.71875 184.339844 154.257812 184.449219 C 154.800781 184.558594 155.34375 184.613281 155.894531 184.613281 C 156.445312 184.613281 156.992188 184.558594 157.535156 184.449219 C 158.074219 184.34375 158.597656 184.183594 159.109375 183.972656 C 159.617188 183.761719 160.101562 183.5 160.558594 183.191406 C 161.015625 182.886719 161.441406 182.535156 161.832031 182.144531 C 162.222656 181.753906 162.570312 181.328125 162.875 180.867188 C 163.179688 180.40625 163.441406 179.921875 163.652344 179.410156 C 163.863281 178.898438 164.019531 178.371094 164.128906 177.828125 C 164.234375 177.285156 164.289062 176.738281 164.289062 176.183594 C 164.289062 175.628906 164.234375 175.082031 164.128906 174.539062 C 164.023438 173.996094 163.863281 173.46875 163.652344 172.960938 C 163.441406 172.449219 163.183594 171.964844 162.878906 171.503906 C 162.570312 171.042969 162.226562 170.617188 161.835938 170.226562 C 161.445312 169.835938 161.023438 169.484375 160.566406 169.179688 C 160.109375 168.871094 159.625 168.609375 159.117188 168.398438 C 158.609375 168.1875 158.085938 168.027344 157.542969 167.917969 C 157.003906 167.808594 156.460938 167.753906 155.910156 167.753906 Z M 155.910156 167.753906 " fill-opacity="1" fill-rule="nonzero"/><g clip-path="url(#id7)"><path fill="#d1dbda" d="M 231.640625 225.089844 C 230.992188 225.089844 230.375 224.964844 229.777344 224.710938 C 229.183594 224.460938 228.660156 224.101562 228.210938 223.640625 C 227.558594 222.996094 227.136719 222.226562 226.933594 221.328125 C 226.839844 220.964844 226.796875 220.59375 226.796875 220.214844 L 226.796875 202.910156 C 226.796875 202.640625 226.890625 202.40625 227.082031 202.214844 C 227.273438 202.019531 227.507812 201.925781 227.777344 201.925781 C 228.050781 201.925781 228.28125 202.019531 228.472656 202.214844 C 228.664062 202.40625 228.761719 202.640625 228.761719 202.910156 L 228.761719 220.234375 C 228.769531 221.023438 229.046875 221.703125 229.59375 222.269531 C 230.003906 222.683594 230.496094 222.953125 231.066406 223.070312 C 231.636719 223.1875 232.191406 223.132812 232.730469 222.910156 C 233.269531 222.6875 233.703125 222.332031 234.027344 221.84375 C 234.347656 221.355469 234.511719 220.820312 234.507812 220.234375 L 234.507812 199.367188 C 234.507812 198.871094 234.457031 198.378906 234.359375 197.886719 C 234.265625 197.398438 234.121094 196.925781 233.929688 196.464844 C 233.738281 196.003906 233.507812 195.566406 233.230469 195.152344 C 232.957031 194.738281 232.644531 194.355469 232.292969 194.003906 C 231.941406 193.652344 231.558594 193.335938 231.148438 193.058594 C 230.734375 192.785156 230.300781 192.550781 229.84375 192.359375 C 229.382812 192.167969 228.914062 192.023438 228.425781 191.925781 C 227.941406 191.828125 227.449219 191.777344 226.953125 191.777344 L 201.722656 191.777344 C 201.453125 191.777344 201.21875 191.683594 201.027344 191.488281 C 200.835938 191.296875 200.738281 191.0625 200.738281 190.792969 C 200.738281 190.519531 200.835938 190.285156 201.027344 190.09375 C 201.21875 189.902344 201.453125 189.804688 201.722656 189.804688 L 226.953125 189.804688 C 227.578125 189.804688 228.195312 189.867188 228.808594 189.988281 C 229.421875 190.113281 230.015625 190.292969 230.59375 190.535156 C 231.171875 190.777344 231.71875 191.070312 232.238281 191.417969 C 232.757812 191.769531 233.238281 192.164062 233.683594 192.609375 C 234.125 193.050781 234.519531 193.535156 234.867188 194.058594 C 235.210938 194.578125 235.507812 195.128906 235.746094 195.710938 C 235.984375 196.289062 236.167969 196.886719 236.289062 197.503906 C 236.410156 198.117188 236.472656 198.742188 236.472656 199.367188 L 236.472656 220.234375 C 236.472656 220.554688 236.441406 220.867188 236.378906 221.183594 C 236.316406 221.496094 236.226562 221.796875 236.105469 222.09375 C 235.984375 222.386719 235.835938 222.667969 235.660156 222.933594 C 235.480469 223.199219 235.28125 223.441406 235.058594 223.667969 C 234.832031 223.894531 234.589844 224.09375 234.324219 224.273438 C 234.0625 224.449219 233.78125 224.597656 233.488281 224.722656 C 233.195312 224.84375 232.894531 224.933594 232.582031 224.996094 C 232.269531 225.058594 231.957031 225.089844 231.640625 225.089844 Z M 231.640625 225.089844 " fill-opacity="1" fill-rule="nonzero"/></g><g clip-path="url(#id8)"><path fill="#d1dbda" d="M 214.335938 248.671875 C 213.976562 248.671875 213.617188 248.636719 213.265625 248.566406 C 212.910156 248.492188 212.566406 248.390625 212.230469 248.25 C 211.898438 248.109375 211.582031 247.941406 211.28125 247.738281 C 210.980469 247.539062 210.703125 247.308594 210.445312 247.050781 C 210.191406 246.796875 209.964844 246.515625 209.761719 246.214844 C 209.5625 245.914062 209.394531 245.59375 209.253906 245.257812 C 209.117188 244.921875 209.011719 244.578125 208.941406 244.222656 C 208.871094 243.867188 208.835938 243.507812 208.835938 243.144531 L 208.835938 203.898438 L 204.050781 203.898438 C 203.78125 203.898438 203.546875 203.800781 203.355469 203.609375 C 203.164062 203.417969 203.070312 203.183594 203.070312 202.910156 C 203.070312 202.640625 203.164062 202.40625 203.355469 202.214844 C 203.546875 202.019531 203.78125 201.925781 204.050781 201.925781 L 209.828125 201.925781 C 210.097656 201.925781 210.332031 202.019531 210.523438 202.214844 C 210.714844 202.40625 210.808594 202.640625 210.808594 202.910156 L 210.808594 243.144531 C 210.808594 243.613281 210.898438 244.066406 211.078125 244.503906 C 211.257812 244.9375 211.515625 245.324219 211.847656 245.65625 C 212.179688 245.988281 212.5625 246.246094 212.992188 246.425781 C 213.425781 246.605469 213.878906 246.695312 214.347656 246.695312 C 214.816406 246.695312 215.269531 246.605469 215.699219 246.425781 C 216.132812 246.246094 216.515625 245.988281 216.847656 245.65625 C 217.179688 245.324219 217.4375 244.9375 217.613281 244.503906 C 217.792969 244.066406 217.882812 243.613281 217.882812 243.144531 L 217.882812 224.105469 C 217.882812 223.832031 217.980469 223.597656 218.171875 223.40625 C 218.363281 223.214844 218.59375 223.117188 218.867188 223.117188 C 219.136719 223.117188 219.371094 223.214844 219.5625 223.40625 C 219.753906 223.597656 219.847656 223.832031 219.847656 224.105469 L 219.847656 243.144531 C 219.847656 243.507812 219.8125 243.867188 219.742188 244.222656 C 219.671875 244.578125 219.566406 244.925781 219.429688 245.261719 C 219.292969 245.597656 219.121094 245.914062 218.921875 246.21875 C 218.71875 246.519531 218.492188 246.796875 218.234375 247.054688 C 217.976562 247.3125 217.699219 247.542969 217.398438 247.742188 C 217.097656 247.945312 216.78125 248.113281 216.445312 248.253906 C 216.113281 248.390625 215.765625 248.496094 215.414062 248.566406 C 215.058594 248.636719 214.699219 248.671875 214.335938 248.671875 Z M 214.335938 248.671875 " fill-opacity="1" fill-rule="nonzero"/></g><g clip-path="url(#id9)"><path fill="#d1dbda" d="M 223.375 248.671875 C 223.015625 248.671875 222.65625 248.636719 222.304688 248.566406 C 221.949219 248.492188 221.605469 248.390625 221.269531 248.25 C 220.9375 248.109375 220.621094 247.941406 220.320312 247.738281 C 220.019531 247.539062 219.742188 247.308594 219.484375 247.050781 C 219.230469 246.796875 219.003906 246.515625 218.800781 246.214844 C 218.601562 245.914062 218.429688 245.59375 218.292969 245.257812 C 218.15625 244.921875 218.050781 244.578125 217.980469 244.222656 C 217.910156 243.867188 217.875 243.507812 217.875 243.144531 L 217.875 224.105469 C 217.875 223.832031 217.96875 223.597656 218.164062 223.40625 C 218.355469 223.214844 218.585938 223.117188 218.855469 223.117188 C 219.128906 223.117188 219.359375 223.214844 219.550781 223.40625 C 219.742188 223.597656 219.839844 223.832031 219.839844 224.105469 L 219.839844 243.144531 C 219.828125 243.382812 219.839844 243.625 219.875 243.863281 C 219.910156 244.101562 219.96875 244.332031 220.054688 244.558594 C 220.136719 244.785156 220.242188 245 220.367188 245.207031 C 220.496094 245.410156 220.640625 245.601562 220.804688 245.777344 C 220.972656 245.953125 221.152344 246.109375 221.347656 246.246094 C 221.546875 246.382812 221.753906 246.5 221.976562 246.59375 C 222.195312 246.691406 222.421875 246.761719 222.660156 246.8125 C 222.894531 246.859375 223.132812 246.882812 223.371094 246.882812 C 223.613281 246.882812 223.847656 246.859375 224.085938 246.8125 C 224.320312 246.761719 224.546875 246.691406 224.769531 246.59375 C 224.988281 246.5 225.199219 246.382812 225.394531 246.246094 C 225.589844 246.109375 225.773438 245.953125 225.9375 245.777344 C 226.101562 245.601562 226.25 245.410156 226.375 245.207031 C 226.503906 245 226.605469 244.785156 226.691406 244.558594 C 226.773438 244.332031 226.832031 244.101562 226.867188 243.863281 C 226.90625 243.625 226.917969 243.382812 226.902344 243.144531 L 226.902344 220.234375 C 226.902344 219.960938 227 219.730469 227.191406 219.535156 C 227.382812 219.34375 227.613281 219.246094 227.886719 219.246094 C 228.15625 219.246094 228.390625 219.34375 228.582031 219.535156 C 228.773438 219.730469 228.867188 219.960938 228.867188 220.234375 L 228.867188 243.144531 C 228.867188 243.507812 228.832031 243.863281 228.761719 244.21875 C 228.691406 244.578125 228.589844 244.921875 228.449219 245.257812 C 228.3125 245.589844 228.144531 245.910156 227.945312 246.210938 C 227.742188 246.511719 227.515625 246.792969 227.261719 247.046875 C 227.003906 247.304688 226.726562 247.535156 226.429688 247.734375 C 226.128906 247.9375 225.8125 248.109375 225.480469 248.246094 C 225.144531 248.386719 224.800781 248.492188 224.449219 248.5625 C 224.09375 248.632812 223.738281 248.671875 223.375 248.671875 Z M 223.375 248.671875 " fill-opacity="1" fill-rule="nonzero"/></g><path fill="#d1dbda" d="M 218.789062 186.578125 C 218.109375 186.578125 217.433594 186.511719 216.769531 186.375 C 216.101562 186.242188 215.453125 186.046875 214.824219 185.785156 C 214.195312 185.523438 213.597656 185.203125 213.035156 184.824219 C 212.46875 184.441406 211.945312 184.011719 211.464844 183.527344 C 210.984375 183.046875 210.554688 182.519531 210.175781 181.953125 C 209.800781 181.382812 209.480469 180.785156 209.21875 180.152344 C 208.960938 179.519531 208.765625 178.871094 208.632812 178.199219 C 208.5 177.53125 208.433594 176.851562 208.433594 176.171875 C 208.433594 175.488281 208.5 174.808594 208.632812 174.140625 C 208.765625 173.46875 208.960938 172.820312 209.222656 172.1875 C 209.484375 171.558594 209.800781 170.957031 210.179688 170.390625 C 210.558594 169.820312 210.988281 169.296875 211.46875 168.8125 C 211.949219 168.332031 212.472656 167.898438 213.039062 167.519531 C 213.605469 167.140625 214.203125 166.820312 214.832031 166.558594 C 215.460938 166.296875 216.105469 166.101562 216.773438 165.96875 C 217.441406 165.835938 218.113281 165.769531 218.792969 165.769531 C 219.476562 165.769531 220.148438 165.835938 220.816406 165.972656 C 221.480469 166.105469 222.128906 166.300781 222.757812 166.566406 C 223.386719 166.828125 223.984375 167.148438 224.546875 167.527344 C 225.113281 167.90625 225.636719 168.339844 226.117188 168.824219 C 226.597656 169.304688 227.027344 169.832031 227.402344 170.402344 C 227.78125 170.96875 228.097656 171.570312 228.359375 172.199219 C 228.617188 172.832031 228.816406 173.484375 228.945312 174.152344 C 229.078125 174.824219 229.144531 175.5 229.144531 176.183594 C 229.144531 176.867188 229.074219 177.542969 228.941406 178.210938 C 228.808594 178.878906 228.613281 179.53125 228.351562 180.160156 C 228.09375 180.792969 227.773438 181.390625 227.394531 181.957031 C 227.015625 182.527344 226.589844 183.050781 226.105469 183.53125 C 225.625 184.015625 225.101562 184.445312 224.539062 184.824219 C 223.972656 185.203125 223.375 185.523438 222.75 185.785156 C 222.121094 186.046875 221.472656 186.242188 220.808594 186.375 C 220.140625 186.511719 219.46875 186.578125 218.789062 186.578125 Z M 218.789062 167.753906 C 218.238281 167.753906 217.691406 167.804688 217.152344 167.914062 C 216.609375 168.019531 216.085938 168.179688 215.574219 168.390625 C 215.066406 168.601562 214.582031 168.863281 214.125 169.167969 C 213.664062 169.476562 213.242188 169.824219 212.851562 170.21875 C 212.460938 170.609375 212.113281 171.035156 211.804688 171.492188 C 211.5 171.953125 211.242188 172.4375 211.03125 172.949219 C 210.816406 173.460938 210.660156 173.988281 210.550781 174.53125 C 210.441406 175.074219 210.386719 175.621094 210.386719 176.175781 C 210.386719 176.730469 210.441406 177.277344 210.546875 177.820312 C 210.65625 178.363281 210.8125 178.890625 211.023438 179.402344 C 211.234375 179.914062 211.492188 180.402344 211.800781 180.863281 C 212.105469 181.320312 212.453125 181.75 212.84375 182.140625 C 213.230469 182.53125 213.65625 182.882812 214.113281 183.1875 C 214.570312 183.496094 215.054688 183.757812 215.5625 183.96875 C 216.074219 184.179688 216.597656 184.339844 217.136719 184.449219 C 217.679688 184.558594 218.222656 184.613281 218.773438 184.613281 C 219.328125 184.613281 219.871094 184.558594 220.414062 184.449219 C 220.953125 184.34375 221.476562 184.183594 221.988281 183.972656 C 222.496094 183.761719 222.980469 183.5 223.4375 183.191406 C 223.898438 182.886719 224.320312 182.535156 224.710938 182.144531 C 225.101562 181.753906 225.449219 181.328125 225.753906 180.867188 C 226.058594 180.40625 226.320312 179.921875 226.53125 179.410156 C 226.742188 178.898438 226.898438 178.371094 227.007812 177.828125 C 227.113281 177.285156 227.167969 176.738281 227.167969 176.183594 C 227.167969 175.628906 227.113281 175.082031 227.007812 174.539062 C 226.898438 174 226.738281 173.472656 226.527344 172.960938 C 226.316406 172.449219 226.058594 171.964844 225.753906 171.503906 C 225.449219 171.046875 225.101562 170.621094 224.710938 170.230469 C 224.324219 169.835938 223.898438 169.488281 223.441406 169.179688 C 222.984375 168.875 222.503906 168.613281 221.996094 168.402344 C 221.488281 168.1875 220.960938 168.027344 220.421875 167.917969 C 219.882812 167.808594 219.339844 167.753906 218.789062 167.753906 Z M 218.789062 167.753906 " fill-opacity="1" fill-rule="nonzero"/><path fill="#d1dbda" d="M 200.179688 222.386719 C 199.863281 222.386719 199.546875 222.355469 199.238281 222.292969 C 198.925781 222.226562 198.621094 222.136719 198.328125 222.011719 C 198.035156 221.890625 197.757812 221.742188 197.492188 221.5625 C 197.230469 221.386719 196.984375 221.183594 196.761719 220.957031 C 196.535156 220.730469 196.335938 220.484375 196.160156 220.21875 C 195.984375 219.953125 195.835938 219.675781 195.714844 219.378906 C 195.59375 219.085938 195.5 218.78125 195.4375 218.46875 C 195.378906 218.15625 195.347656 217.839844 195.347656 217.519531 L 195.347656 202.25 C 195.347656 201.976562 195.441406 201.746094 195.632812 201.554688 C 195.824219 201.359375 196.058594 201.261719 196.328125 201.261719 C 196.601562 201.261719 196.832031 201.359375 197.023438 201.554688 C 197.214844 201.746094 197.3125 201.976562 197.3125 202.25 L 197.3125 217.519531 C 197.289062 217.917969 197.34375 218.304688 197.480469 218.675781 C 197.613281 219.050781 197.820312 219.382812 198.089844 219.671875 C 198.363281 219.964844 198.679688 220.1875 199.042969 220.34375 C 199.410156 220.503906 199.789062 220.582031 200.183594 220.582031 C 200.582031 220.582031 200.960938 220.503906 201.324219 220.34375 C 201.6875 220.1875 202.007812 219.964844 202.277344 219.671875 C 202.550781 219.382812 202.753906 219.050781 202.890625 218.675781 C 203.027344 218.304688 203.082031 217.917969 203.058594 217.519531 L 203.058594 196.664062 C 203.058594 196.167969 203.007812 195.675781 202.910156 195.1875 C 202.808594 194.699219 202.664062 194.226562 202.476562 193.765625 C 202.285156 193.308594 202.050781 192.871094 201.777344 192.457031 C 201.5 192.046875 201.1875 191.664062 200.835938 191.3125 C 200.484375 190.960938 200.105469 190.648438 199.691406 190.371094 C 199.28125 190.09375 198.847656 189.863281 198.386719 189.671875 C 197.929688 189.480469 197.460938 189.335938 196.972656 189.242188 C 196.488281 189.144531 196 189.09375 195.503906 189.09375 L 179.195312 189.09375 C 178.699219 189.09375 178.207031 189.140625 177.722656 189.238281 C 177.234375 189.335938 176.765625 189.480469 176.304688 189.667969 C 175.847656 189.859375 175.414062 190.09375 175 190.367188 C 174.589844 190.644531 174.207031 190.957031 173.855469 191.308594 C 173.503906 191.660156 173.191406 192.042969 172.914062 192.457031 C 172.636719 192.867188 172.402344 193.304688 172.214844 193.765625 C 172.023438 194.222656 171.878906 194.699219 171.78125 195.183594 C 171.679688 195.671875 171.632812 196.167969 171.628906 196.664062 L 171.628906 217.519531 C 171.605469 217.917969 171.660156 218.304688 171.796875 218.675781 C 171.933594 219.050781 172.136719 219.382812 172.410156 219.671875 C 172.679688 219.964844 173 220.1875 173.363281 220.34375 C 173.726562 220.503906 174.105469 220.582031 174.503906 220.582031 C 174.898438 220.582031 175.277344 220.503906 175.644531 220.34375 C 176.007812 220.1875 176.324219 219.964844 176.597656 219.671875 C 176.867188 219.382812 177.074219 219.050781 177.207031 218.675781 C 177.34375 218.304688 177.398438 217.917969 177.375 217.519531 L 177.375 202.25 C 177.375 201.976562 177.472656 201.746094 177.664062 201.554688 C 177.855469 201.359375 178.085938 201.261719 178.359375 201.261719 C 178.628906 201.261719 178.863281 201.359375 179.054688 201.554688 C 179.246094 201.746094 179.339844 201.976562 179.339844 202.25 L 179.339844 217.519531 C 179.355469 217.847656 179.339844 218.175781 179.285156 218.5 C 179.234375 218.824219 179.152344 219.140625 179.039062 219.449219 C 178.921875 219.757812 178.777344 220.050781 178.605469 220.328125 C 178.429688 220.605469 178.230469 220.863281 178.003906 221.101562 C 177.777344 221.339844 177.53125 221.550781 177.261719 221.738281 C 176.992188 221.925781 176.707031 222.085938 176.40625 222.214844 C 176.105469 222.34375 175.796875 222.441406 175.472656 222.507812 C 175.152344 222.574219 174.828125 222.605469 174.503906 222.605469 C 174.175781 222.605469 173.851562 222.574219 173.53125 222.507812 C 173.210938 222.441406 172.898438 222.34375 172.597656 222.214844 C 172.296875 222.085938 172.011719 221.925781 171.742188 221.738281 C 171.476562 221.550781 171.226562 221.339844 171 221.101562 C 170.777344 220.863281 170.574219 220.605469 170.402344 220.328125 C 170.226562 220.050781 170.082031 219.757812 169.96875 219.449219 C 169.851562 219.140625 169.769531 218.824219 169.71875 218.5 C 169.667969 218.175781 169.648438 217.847656 169.664062 217.519531 L 169.664062 196.664062 C 169.664062 196.035156 169.730469 195.414062 169.851562 194.800781 C 169.976562 194.183594 170.15625 193.589844 170.398438 193.007812 C 170.636719 192.429688 170.933594 191.878906 171.28125 191.359375 C 171.628906 190.839844 172.023438 190.355469 172.464844 189.914062 C 172.90625 189.46875 173.390625 189.074219 173.910156 188.726562 C 174.429688 188.378906 174.976562 188.085938 175.554688 187.84375 C 176.132812 187.605469 176.726562 187.425781 177.339844 187.300781 C 177.949219 187.179688 178.570312 187.121094 179.195312 187.121094 L 195.503906 187.121094 C 196.128906 187.121094 196.746094 187.179688 197.359375 187.300781 C 197.972656 187.425781 198.566406 187.605469 199.144531 187.84375 C 199.722656 188.085938 200.269531 188.378906 200.789062 188.726562 C 201.308594 189.074219 201.789062 189.46875 202.230469 189.914062 C 202.675781 190.355469 203.070312 190.839844 203.417969 191.359375 C 203.765625 191.878906 204.058594 192.429688 204.300781 193.007812 C 204.539062 193.589844 204.722656 194.183594 204.84375 194.800781 C 204.96875 195.414062 205.03125 196.035156 205.035156 196.664062 L 205.035156 217.519531 C 205.035156 217.839844 205.003906 218.15625 204.941406 218.46875 C 204.878906 218.785156 204.785156 219.089844 204.664062 219.382812 C 204.542969 219.679688 204.390625 219.960938 204.214844 220.226562 C 204.039062 220.492188 203.835938 220.738281 203.613281 220.964844 C 203.386719 221.191406 203.140625 221.390625 202.875 221.570312 C 202.609375 221.746094 202.332031 221.898438 202.035156 222.019531 C 201.742188 222.140625 201.4375 222.234375 201.125 222.292969 C 200.8125 222.355469 200.5 222.386719 200.179688 222.386719 Z M 200.179688 222.386719 " fill-opacity="1" fill-rule="nonzero"/><g clip-path="url(#id10)"><path fill="#d1dbda" d="M 191.808594 248.671875 C 191.449219 248.671875 191.089844 248.632812 190.738281 248.5625 C 190.382812 248.492188 190.039062 248.386719 189.707031 248.246094 C 189.371094 248.109375 189.054688 247.9375 188.753906 247.738281 C 188.453125 247.535156 188.175781 247.304688 187.921875 247.050781 C 187.667969 246.792969 187.4375 246.511719 187.238281 246.210938 C 187.035156 245.910156 186.867188 245.59375 186.730469 245.257812 C 186.589844 244.921875 186.484375 244.578125 186.414062 244.222656 C 186.34375 243.867188 186.308594 243.507812 186.308594 243.144531 L 186.308594 221.429688 C 186.308594 221.15625 186.402344 220.921875 186.59375 220.730469 C 186.785156 220.539062 187.019531 220.441406 187.289062 220.441406 C 187.5625 220.441406 187.792969 220.539062 187.984375 220.730469 C 188.175781 220.921875 188.273438 221.15625 188.273438 221.429688 L 188.273438 243.144531 C 188.273438 243.613281 188.363281 244.066406 188.542969 244.503906 C 188.722656 244.9375 188.976562 245.324219 189.308594 245.65625 C 189.640625 245.988281 190.023438 246.246094 190.457031 246.425781 C 190.890625 246.605469 191.339844 246.695312 191.808594 246.695312 C 192.277344 246.695312 192.730469 246.605469 193.164062 246.425781 C 193.597656 246.246094 193.980469 245.988281 194.308594 245.65625 C 194.640625 245.324219 194.898438 244.9375 195.078125 244.503906 C 195.257812 244.066406 195.347656 243.613281 195.347656 243.144531 L 195.347656 217.480469 C 195.347656 217.207031 195.441406 216.976562 195.632812 216.78125 C 195.824219 216.589844 196.058594 216.492188 196.328125 216.492188 C 196.601562 216.492188 196.832031 216.589844 197.023438 216.78125 C 197.214844 216.976562 197.3125 217.207031 197.3125 217.480469 L 197.3125 243.144531 C 197.3125 243.507812 197.277344 243.867188 197.207031 244.222656 C 197.136719 244.578125 197.03125 244.921875 196.890625 245.257812 C 196.753906 245.59375 196.585938 245.914062 196.382812 246.214844 C 196.183594 246.515625 195.957031 246.796875 195.699219 247.050781 C 195.445312 247.308594 195.167969 247.539062 194.867188 247.738281 C 194.566406 247.941406 194.25 248.109375 193.914062 248.25 C 193.582031 248.390625 193.238281 248.492188 192.882812 248.566406 C 192.527344 248.636719 192.171875 248.671875 191.808594 248.671875 Z M 191.808594 248.671875 " fill-opacity="1" fill-rule="nonzero"/></g><g clip-path="url(#id11)"><path fill="#d1dbda" d="M 182.78125 248.671875 C 182.417969 248.671875 182.0625 248.636719 181.707031 248.566406 C 181.351562 248.492188 181.007812 248.390625 180.675781 248.25 C 180.339844 248.109375 180.023438 247.941406 179.722656 247.738281 C 179.421875 247.539062 179.144531 247.308594 178.890625 247.050781 C 178.632812 246.796875 178.40625 246.515625 178.207031 246.214844 C 178.003906 245.914062 177.835938 245.59375 177.695312 245.257812 C 177.558594 244.921875 177.453125 244.578125 177.382812 244.222656 C 177.3125 243.867188 177.277344 243.507812 177.277344 243.144531 L 177.277344 217.480469 C 177.277344 217.207031 177.375 216.976562 177.566406 216.78125 C 177.757812 216.589844 177.988281 216.492188 178.261719 216.492188 C 178.53125 216.492188 178.761719 216.589844 178.957031 216.78125 C 179.148438 216.976562 179.242188 217.207031 179.242188 217.480469 L 179.242188 243.144531 C 179.230469 243.382812 179.242188 243.625 179.277344 243.863281 C 179.3125 244.101562 179.375 244.332031 179.457031 244.558594 C 179.539062 244.785156 179.644531 245 179.769531 245.207031 C 179.898438 245.410156 180.042969 245.601562 180.210938 245.777344 C 180.375 245.953125 180.554688 246.109375 180.753906 246.246094 C 180.949219 246.382812 181.160156 246.5 181.378906 246.59375 C 181.597656 246.691406 181.828125 246.761719 182.0625 246.8125 C 182.296875 246.859375 182.535156 246.882812 182.773438 246.882812 C 183.015625 246.882812 183.253906 246.859375 183.488281 246.8125 C 183.722656 246.761719 183.953125 246.691406 184.171875 246.59375 C 184.390625 246.5 184.601562 246.382812 184.796875 246.246094 C 184.996094 246.109375 185.175781 245.953125 185.339844 245.777344 C 185.507812 245.601562 185.652344 245.410156 185.777344 245.207031 C 185.90625 245 186.011719 244.785156 186.09375 244.558594 C 186.175781 244.332031 186.238281 244.101562 186.273438 243.863281 C 186.308594 243.625 186.320312 243.382812 186.308594 243.144531 L 186.308594 221.429688 C 186.308594 221.15625 186.402344 220.921875 186.59375 220.730469 C 186.785156 220.539062 187.019531 220.441406 187.289062 220.441406 C 187.5625 220.441406 187.792969 220.539062 187.984375 220.730469 C 188.175781 220.921875 188.273438 221.15625 188.273438 221.429688 L 188.273438 243.144531 C 188.273438 243.507812 188.238281 243.863281 188.167969 244.21875 C 188.097656 244.578125 187.992188 244.921875 187.855469 245.257812 C 187.714844 245.589844 187.546875 245.910156 187.347656 246.210938 C 187.148438 246.511719 186.917969 246.792969 186.664062 247.046875 C 186.410156 247.304688 186.132812 247.535156 185.832031 247.734375 C 185.53125 247.9375 185.214844 248.109375 184.882812 248.246094 C 184.550781 248.386719 184.207031 248.492188 183.851562 248.5625 C 183.5 248.632812 183.140625 248.671875 182.78125 248.671875 Z M 182.78125 248.671875 " fill-opacity="1" fill-rule="nonzero"/></g><path fill="#d1dbda" d="M 187.347656 183.863281 C 186.667969 183.863281 185.996094 183.796875 185.332031 183.664062 C 184.664062 183.53125 184.015625 183.332031 183.390625 183.070312 C 182.761719 182.808594 182.164062 182.488281 181.601562 182.109375 C 181.035156 181.730469 180.511719 181.300781 180.035156 180.816406 C 179.554688 180.335938 179.125 179.808594 178.746094 179.242188 C 178.371094 178.675781 178.050781 178.078125 177.789062 177.445312 C 177.53125 176.816406 177.335938 176.164062 177.203125 175.496094 C 177.070312 174.828125 177.003906 174.152344 177.003906 173.46875 C 177.003906 172.785156 177.070312 172.109375 177.203125 171.441406 C 177.335938 170.773438 177.53125 170.121094 177.789062 169.492188 C 178.050781 168.859375 178.371094 168.261719 178.746094 167.695312 C 179.125 167.128906 179.554688 166.601562 180.035156 166.121094 C 180.511719 165.636719 181.035156 165.207031 181.601562 164.828125 C 182.164062 164.449219 182.761719 164.128906 183.390625 163.867188 C 184.015625 163.605469 184.664062 163.40625 185.332031 163.273438 C 185.996094 163.140625 186.667969 163.074219 187.347656 163.074219 C 188.027344 163.074219 188.699219 163.140625 189.367188 163.273438 C 190.035156 163.40625 190.679688 163.605469 191.308594 163.867188 C 191.933594 164.128906 192.53125 164.449219 193.097656 164.828125 C 193.660156 165.207031 194.183594 165.636719 194.664062 166.121094 C 195.144531 166.601562 195.574219 167.128906 195.949219 167.695312 C 196.328125 168.261719 196.648438 168.859375 196.90625 169.492188 C 197.167969 170.121094 197.363281 170.773438 197.496094 171.441406 C 197.628906 172.109375 197.695312 172.785156 197.695312 173.46875 C 197.695312 174.152344 197.625 174.828125 197.492188 175.496094 C 197.359375 176.164062 197.164062 176.8125 196.902344 177.445312 C 196.644531 178.074219 196.324219 178.671875 195.949219 179.242188 C 195.570312 179.808594 195.140625 180.332031 194.660156 180.816406 C 194.179688 181.296875 193.660156 181.726562 193.09375 182.109375 C 192.53125 182.488281 191.933594 182.808594 191.304688 183.070312 C 190.679688 183.328125 190.03125 183.527344 189.367188 183.660156 C 188.699219 183.792969 188.027344 183.863281 187.347656 183.863281 Z M 187.347656 165.050781 C 186.796875 165.050781 186.253906 165.101562 185.714844 165.210938 C 185.175781 165.320312 184.648438 165.480469 184.140625 165.691406 C 183.632812 165.902344 183.148438 166.160156 182.691406 166.46875 C 182.234375 166.773438 181.8125 167.125 181.421875 167.515625 C 181.035156 167.90625 180.6875 168.332031 180.378906 168.792969 C 180.074219 169.25 179.816406 169.734375 179.605469 170.246094 C 179.394531 170.757812 179.238281 171.285156 179.128906 171.828125 C 179.023438 172.367188 178.96875 172.914062 178.96875 173.46875 C 178.96875 174.023438 179.023438 174.570312 179.128906 175.109375 C 179.238281 175.652344 179.394531 176.179688 179.605469 176.691406 C 179.816406 177.203125 180.074219 177.6875 180.378906 178.144531 C 180.6875 178.605469 181.035156 179.03125 181.421875 179.421875 C 181.8125 179.8125 182.234375 180.160156 182.691406 180.46875 C 183.148438 180.777344 183.632812 181.035156 184.140625 181.246094 C 184.648438 181.457031 185.175781 181.617188 185.714844 181.726562 C 186.253906 181.835938 186.796875 181.886719 187.347656 181.886719 C 187.898438 181.886719 188.445312 181.835938 188.984375 181.726562 C 189.523438 181.617188 190.046875 181.457031 190.554688 181.246094 C 191.0625 181.035156 191.546875 180.777344 192.003906 180.46875 C 192.460938 180.160156 192.886719 179.8125 193.273438 179.421875 C 193.664062 179.03125 194.011719 178.605469 194.316406 178.144531 C 194.621094 177.6875 194.878906 177.203125 195.089844 176.691406 C 195.300781 176.179688 195.460938 175.652344 195.566406 175.109375 C 195.675781 174.570312 195.730469 174.023438 195.730469 173.46875 C 195.730469 172.917969 195.675781 172.367188 195.566406 171.828125 C 195.457031 171.285156 195.300781 170.757812 195.089844 170.25 C 194.878906 169.738281 194.621094 169.253906 194.3125 168.792969 C 194.007812 168.335938 193.660156 167.910156 193.273438 167.519531 C 192.882812 167.128906 192.460938 166.777344 192.003906 166.472656 C 191.546875 166.164062 191.0625 165.90625 190.554688 165.691406 C 190.046875 165.480469 189.523438 165.320312 188.984375 165.210938 C 188.445312 165.105469 187.898438 165.050781 187.347656 165.050781 Z M 187.347656 165.050781 " fill-opacity="1" fill-rule="nonzero"/></svg>